# xmcd
#
# Track frame offsets: 
#        150
#        14598
#        29037
#        45029
#        60231
#        75585
#        90413
#        100606
#        118612
#        144476
#        162464
#        182395
#        198142
#        215727
#
# Disc length: 3122 seconds
#
# Revision: 0
# Processed by: cddbd v1.5.2PL0 Copyright (c) Steve Scherf et al.
# Submitted via: ExactAudioCopyFreeDBPlugin 1.0
#
DISCID=aa0c300e
DTITLE=Curse - Die Farbe von Wasser
DYEAR=2018
DGENRE=Hip Hop
TTITLE0=Wer weiss, wie viel Zeit uns noch bleibt
TTITLE1=Was du bist
TTITLE2=Bei mir
TTITLE3=Waffen
TTITLE4=Achterbahn - Riesenrad
TTITLE5=Aufgeben
TTITLE6=Stell dir vor (Reprise)
TTITLE7=Manuskript
TTITLE8=Paralleluniversen
TTITLE9=Safe
TTITLE10=Immer mehr
TTITLE11=Methadon
TTITLE12=Goldregen
TTITLE13=Bis wir uns wiedersehen
EXTD=
EXTT0=
EXTT1=
EXTT2=
EXTT3=
EXTT4=
EXTT5=
EXTT6=
EXTT7=
EXTT8=
EXTT9=
EXTT10=
EXTT11=
EXTT12=
EXTT13=
PLAYORDER=
